<?xml version="1.0" encoding="UTF-8" standalone="no"?>
<!-- Created with Inkscape (http://www.inkscape.org/) -->

<svg
   width="1024"
   height="1024"
   viewBox="0 0 270.93333 270.93334"
   version="1.1"
   id="svg5"
   inkscape:version="1.1.1 (3bf5ae0d25, 2021-09-20)"
   sodipodi:docname="logo.svg"
   inkscape:export-xdpi="96.000008"
   inkscape:export-ydpi="96.000008"
   xmlns:inkscape="http://www.inkscape.org/namespaces/inkscape"
   xmlns:sodipodi="http://sodipodi.sourceforge.net/DTD/sodipodi-0.dtd"
   xmlns:xlink="http://www.w3.org/1999/xlink"
   xmlns="http://www.w3.org/2000/svg"
   xmlns:svg="http://www.w3.org/2000/svg">
  <sodipodi:namedview
     id="namedview7"
     pagecolor="#ffffff"
     bordercolor="#666666"
     borderopacity="1.0"
     inkscape:pageshadow="2"
     inkscape:pageopacity="0.0"
     inkscape:pagecheckerboard="0"
     inkscape:document-units="mm"
     showgrid="false"
     units="px"
     inkscape:zoom="0.38885734"
     inkscape:cx="-75.863298"
     inkscape:cy="775.34862"
     inkscape:window-width="2560"
     inkscape:window-height="1387"
     inkscape:window-x="1912"
     inkscape:window-y="-8"
     inkscape:window-maximized="1"
     inkscape:current-layer="layer1"
     inkscape:lockguides="true" />
  <defs
     id="defs2">
    <linearGradient
       inkscape:collect="always"
       id="linearGradient5551">
      <stop
         style="stop-color:#4f0091;stop-opacity:1;"
         offset="0"
         id="stop5547" />
      <stop
         style="stop-color:#000000;stop-opacity:1"
         offset="1"
         id="stop5549" />
    </linearGradient>
    <linearGradient
       inkscape:collect="always"
       xlink:href="#linearGradient5551"
       id="linearGradient5553"
       x1="136.63927"
       y1="-0.69148958"
       x2="136.63927"
       y2="271.62482"
       gradientUnits="userSpaceOnUse"
       gradientTransform="translate(365.17329,-81.30988)" />
  </defs>
  <g
     inkscape:label="Layer 1"
     inkscape:groupmode="layer"
     id="layer1">
    <circle
       style="opacity:1;fill:url(#linearGradient5553);fill-opacity:1;fill-rule:nonzero;stroke:none;stroke-width:26.6616;stroke-linejoin:round;stroke-miterlimit:4;stroke-dasharray:none;stroke-opacity:1"
       id="path4240"
       cx="500.63992"
       cy="54.156673"
       r="135.46666"
       inkscape:export-xdpi="96.000008"
       inkscape:export-ydpi="96.000008" />
    <text
       xml:space="preserve"
       style="font-style:normal;font-weight:normal;font-size:10.5833px;line-height:1.25;font-family:sans-serif;fill:#000000;fill-opacity:1;stroke:none;stroke-width:0.264583"
       x="-135.19589"
       y="111.13969"
       id="text6536"><tspan
         sodipodi:role="line"
         id="tspan6534"
         style="stroke-width:0.264583"
         x="-135.19589"
         y="111.13969" /></text>
    <path
       d="m 257.74231,135.46666 -24.45883,9.9525 -12.22989,9.95287 -12.2294,-9.95287 -12.22943,29.85786 -12.22989,-29.85786 -12.22943,79.62105 -12.22939,-79.62105 -12.22989,19.90535 -12.22943,-19.90535 -12.22941,39.81071 -12.22986,-39.81071 -12.229443,89.57354 -12.229408,-89.57354 -12.229878,59.71569 -12.229425,-59.71569 -12.229414,9.95287 -12.229876,-9.95287 -24.458839,-9.9525 24.458839,-9.95248 12.229876,-9.95286 12.229414,9.95286 12.229425,-59.715692 12.229878,59.715692 12.229408,-89.57354 12.229443,89.57354 12.22986,-39.810708 12.22941,39.810708 12.22943,-19.90535 12.22989,19.90535 12.22939,-79.621052 12.22943,79.621052 12.22989,-29.857857 12.22943,29.857857 12.2294,-9.95286 12.22989,9.95286 z"
       id="path20198"
       style="fill:#ffcc00;fill-opacity:1;stroke:#000000;stroke-width:1.29567;stroke-miterlimit:4;stroke-dasharray:none;stroke-opacity:1" />
    <path
       id="path1216"
       style="fill:#ffcc00;fill-opacity:1;stroke-width:1.32291667;stroke-linejoin:miter;stroke:#000000;stroke-opacity:1;stroke-miterlimit:4;stroke-dasharray:none"
       d="M 135.46666,-1.1833333e-5 A 135.46666,135.46667 0 0 0 -1.8333334e-6,135.46612 135.46666,135.46667 0 0 0 135.46666,270.93335 135.46666,135.46667 0 0 0 270.93334,135.46612 135.46666,135.46667 0 0 0 135.46666,-1.1833333e-5 Z m 0,14.259657833333 A 121.20703,121.20704 0 0 1 256.67369,135.46612 121.20703,121.20704 0 0 1 135.46666,256.67372 121.20703,121.20704 0 0 1 14.259644,135.46612 121.20703,121.20704 0 0 1 135.46666,14.259646 Z" />
  </g>
</svg>
