<?xml version="1.0" encoding="UTF-8" standalone="no"?>
<!-- Created with Inkscape (http://www.inkscape.org/) -->

<svg
   width="1024"
   height="1024"
   viewBox="0 0 270.93333 270.93334"
   version="1.1"
   id="svg5"
   inkscape:version="1.1.1 (3bf5ae0d25, 2021-09-20)"
   sodipodi:docname="logo_transparent.svg"
   inkscape:export-xdpi="96.000008"
   inkscape:export-ydpi="96.000008"
   inkscape:export-filename="C:\Users\jack\Desktop\tauri\obliqoro\logo.png"
   xmlns:inkscape="http://www.inkscape.org/namespaces/inkscape"
   xmlns:sodipodi="http://sodipodi.sourceforge.net/DTD/sodipodi-0.dtd"
   xmlns="http://www.w3.org/2000/svg"
   xmlns:svg="http://www.w3.org/2000/svg">
  <sodipodi:namedview
     id="namedview7"
     pagecolor="#ffffff"
     bordercolor="#666666"
     borderopacity="1.0"
     inkscape:pageshadow="2"
     inkscape:pageopacity="0.0"
     inkscape:pagecheckerboard="0"
     inkscape:document-units="mm"
     showgrid="false"
     units="px"
     inkscape:zoom="0.38885734"
     inkscape:cx="402.46122"
     inkscape:cy="821.63808"
     inkscape:window-width="2560"
     inkscape:window-height="1387"
     inkscape:window-x="1912"
     inkscape:window-y="-8"
     inkscape:window-maximized="1"
     inkscape:current-layer="layer1"
     inkscape:lockguides="true" />
  <defs
     id="defs2" />
  <g
     inkscape:label="Layer 1"
     inkscape:groupmode="layer"
     id="layer1">
    <text
       xml:space="preserve"
       style="font-style:normal;font-weight:normal;font-size:10.5833px;line-height:1.25;font-family:sans-serif;fill:#000000;fill-opacity:1;stroke:none;stroke-width:0.264583"
       x="-135.19589"
       y="111.13969"
       id="text6536"><tspan
         sodipodi:role="line"
         id="tspan6534"
         style="stroke-width:0.264583"
         x="-135.19589"
         y="111.13969" /></text>
    <path
       id="path1216"
       style="fill:#ffcc00;fill-opacity:1;stroke-width:1.32291667;stroke-linejoin:miter;stroke:#000000;stroke-opacity:1;stroke-miterlimit:4;stroke-dasharray:none"
       d="M 135.46666,-1.1833333e-5 A 135.46666,135.46667 0 0 0 -1.8333334e-6,135.46612 135.46666,135.46667 0 0 0 135.46666,270.93335 135.46666,135.46667 0 0 0 270.93334,135.46612 135.46666,135.46667 0 0 0 135.46666,-1.1833333e-5 Z m 0,14.259657833333 A 121.20703,121.20704 0 0 1 256.67369,135.46612 121.20703,121.20704 0 0 1 135.46666,256.67372 121.20703,121.20704 0 0 1 14.259644,135.46612 121.20703,121.20704 0 0 1 135.46666,14.259646 Z" />
    <path
       d="m 30.328769,109.24021 39.33981,39.3398 v 0 0 l 52.452921,1e-5 v 52.45292 0 0 l 39.33981,39.33981 78.67963,-78.67963 -39.33982,-39.33981 v 0 0 h -52.45291 v -52.452918 0 0 L 109.0084,30.560582 30.328769,109.24021 m 160.637271,29.50472 22.94845,22.94843 -52.45293,52.45293 -22.94843,-22.94844 v -52.45292 h 52.45291 m -59.00946,-6.55655 -52.453171,-2.5e-4 -22.94818,-22.94818 52.452921,-52.452918 22.94818,22.94818 z"
       id="path2"
       style="fill:#ffcc00;fill-opacity:1;stroke:#000000;stroke-width:1.31133;stroke-miterlimit:4;stroke-dasharray:none;stroke-opacity:1" />
  </g>
</svg>
